  <svg id="graph" xmlns="http://www.w3.org/2000/svg" class='w-full' width='200' height='30' viewbox="0 0 300.0 20">
  <path fill="none" class='stroke-2 stroke-amber-900 dark:stroke-amber-300' d="M 0.49813200498132,19.99101688825009
C 0.58115400581154,9.873038687267934 0.91324200913242,10.615642591927179 0.99626400996264,10.801293568091987
C 1.16230801162308,10.847706312133191 1.4113740141137399,10.105102407473952 1.49439601494396,9.965864175350342
C 1.6604400166044,10.666546891843337 1.90950601909506,14.165468918433348 1.99252801992528,15.005389867049946
C 2.15857202158572,16.671757096658283 2.4076380240763804,19.137621272008623 2.4906600249066,19.96406755300036
C 2.65670402656704,18.682476943346508 2.9057700290577,9.423883099772429 2.98879202988792,7.315846209126842
C 3.15483603154836,5.332075697688346 3.4039020340390196,7.937178105162293 3.4869240348692396,8.061444484369385
C 3.652968036529679,8.49862258953168 3.90203403902034,9.626003114145407 3.98505603985056,9.938914840100612
C 4.1511000415109995,10.000299437058333 4.400166044001659,8.681279195113188 4.48318804483188,8.429752066115704
C 4.64923204649232,8.793568091987067 4.89829804898298,11.506467840459933 4.9813200498132,12.121810995328783
C 5.14736405147364,13.192298478859746 5.396430053964299,14.397532638639357 5.47945205479452,14.852676967301473
C 5.64549605645496,14.752365552760807 5.8945620589456205,12.07539825128758 5.9775840597758405,11.519942508084801
C 6.143628061436281,10.608156665468918 6.392694063926942,9.738292011019283 6.47571606475716,9.381961911606181
C 6.6417600664176,10.241346269014253 6.89082606890826,15.460534195712063 6.97384806973848,16.67624865253324
C 7.139892071398921,15.7135585100012 7.3889580738895795,5.784225655767158 7.4719800747198,3.6058210564139404
C 7.63802407638024,4.158282429033416 7.887090078870901,17.2601509162774 7.97011207970112,19.99101688825009
C 8.136156081361559,22.72188286022278 8.385222083852218,19.991016888250094 8.46824408468244,19.99101688825009
C 8.63428808634288,18.800754581386993 8.883354088833538,14.039705353934606 8.96637608966376,12.849443047071507
C 9.1324200913242,10.551263624386158 9.381486093814859,7.309857467960235 9.46450809464508,6.201940352137981
C 9.63055209630552,4.626901425320397 9.87961809879618,3.866331297161336 9.9626400996264,3.3992094861660074
C 10.12868410128684,4.712240986944543 10.3777501037775,12.299976045035335 10.46077210460772,14.080129356809199
C 10.62681610626816,16.138759132830284 10.875882108758821,15.472511678045274 10.95890410958904,15.750988142292492
C 11.12494811124948,15.197029584381367 11.374014113740143,11.588813031500779 11.45703611457036,10.756378009342438
C 11.6230801162308,10.046712181099533 11.87214611872146,11.370223978919633 11.95516811955168,11.492993172835071
C 12.12121212121212,11.335788717211642 12.37027812370278,10.093124925140737 12.453300124533,9.81315127560187
C 12.61934412619344,11.229488561504374 12.868410128684102,18.294705952808723 12.95143212951432,19.99101688825009
C 13.117476131174762,21.68732782369146 13.366542133665419,19.991016888250094 13.44956413449564,19.99101688825009
C 13.615608136156082,18.534255599472996 13.864674138646741,12.707210444364597 13.94769613947696,11.250449155587496
C 14.113740141137399,9.462809917355374 14.362806143628061,9.596059408312374 14.44582814445828,9.265181458857349
C 14.61187214611872,9.190322194274763 14.860938148609378,10.545274883219546 14.943960149439599,10.801293568091987
C 15.110004151100041,12.08288417774584 15.3590701535907,15.929153191999047 15.44209215442092,16.954725116780455
C 15.608136156081358,16.22709306503773 15.85720215857202,8.18870523415978 15.94022415940224,6.435501257635644
C 16.10626816106268,4.926338483650736 16.355334163553337,7.655707270331775 16.43835616438356,7.899748472871003
C 16.604400166043998,9.476284584980236 16.85346616853466,14.562223020721044 16.93648816936488,15.894717930291053
C 17.102532171025317,16.036950532997967 17.351598173515978,9.943406395975567 17.434620174346197,8.75314408911247
C 17.60066417600664,7.821894837705116 17.849730178497296,10.048209366391184 17.93275217932752,10.307222421846928
C 18.098796180987957,11.169601149838305 18.347862183478615,13.324050784525092 18.430884184308837,13.927416457060726
C 18.596928185969276,14.328662115223379 18.84599418845994,12.916816385195835 18.92901618929016,12.714696370822853
C 19.0950601909506,13.394418493232722 19.34412619344126,17.123907054737096 19.427148194271478,18.005749191519943
C 19.593192195931916,17.237693136902625 19.842258198422574,9.756258234519104 19.925280199252796,8.106360043118936
C 20.091324200913235,7.133189603545335 20.3403902034039,11.489998802251767 20.42341220423412,12.166726554078334
C 20.58945620589456,14.14301113905857 20.838522208385218,18.664510719846685 20.921544209215437,19.96406755300036
C 21.087588210875875,21.26811594202898 21.33665421336654,19.986525332375134 21.41967621419676,19.99101688825009
C 21.585720215857197,19.995508444125047 21.834786218347855,19.991016888250094 21.917808219178077,19.99101688825009
C 22.08385222083852,19.99101688825009 22.332918223329177,19.991016888250094 22.4159402241594,19.99101688825009
C 22.581984225819838,19.99101688825009 22.831050228310502,19.991016888250094 22.914072229140718,19.99101688825009
C 23.080116230801156,18.683974128638162 23.329182233291814,13.455803090190443 23.412204234122036,12.148760330578513
C 23.57824823578248,10.093124925140737 23.827314238273136,8.405797101449275 23.91033623910336,7.657204455623428
C 24.076380240763797,8.094382560785723 24.32544624325446,13.58605821056414 24.408468244084677,14.771828961552282
C 24.574512245745115,15.41262426637921 24.823578248235776,12.046951730746196 24.906600249066,11.50197628458498
C 25.072644250726437,12.371840939034614 25.321710253217095,18.576176787639238 25.404732254047317,19.99101688825009
C 25.570776255707756,21.405856988860943 25.81984225819842,19.991016888250094 25.90286425902864,19.99101688825009
C 26.068908260689085,19.99101688825009 26.317974263179735,19.991016888250094 26.400996264009958,19.99101688825009
C 26.567040265670396,19.99101688825009 26.816106268161054,19.991016888250094 26.899128268991277,19.99101688825009
C 27.065172270651715,19.487962630255122 27.31423827314238,17.475745598275243 27.3972602739726,16.972691340280274
C 27.563304275633044,15.92017008024913 27.812370278123694,14.225356330099416 27.895392278953917,13.675889328063242
C 28.06143628061436,13.473769313690262 28.31050228310502,15.412624266379211 28.39352428393524,15.759971254042402
C 28.559568285595677,15.146125284465207 28.808634288086342,10.95400646784046 28.891656288916558,9.992813510600072
C 29.057700290577,10.603665109593964 29.306766293067653,17.85303629177147 29.389788293897876,19.42508084800575
C 29.555832295558318,21.091448077614086 29.80489829804898,19.89669421487603 29.887920298879198,19.99101688825009
C 30.053964300539636,20.08533956162415 30.3030303030303,19.991016888250094 30.386052303860517,19.99101688825009
C 30.55209630552096,19.964067553000362 30.801162308011616,19.85627021200144 30.88418430884184,19.82932087675171
C 31.05022831050228,18.992394298718413 31.299294312992938,15.779434662833873 31.382316313823157,14.969457420050306
C 31.548360315483595,14.045694095101211 31.79742631797426,14.400527009222662 31.88044831880448,14.286740927057133
C 32.046492320464914,15.123667505090431 32.29555832295558,19.040304228051266 32.3785803237858,19.99101688825009
C 32.54462432544624,20.941729548448915 32.79369032793689,19.991016888250094 32.87671232876712,19.99101688825009
C 33.04275633042756,19.99101688825009 33.29182233291822,19.991016888250094 33.37484433374844,19.99101688825009
C 33.54088833540888,19.99101688825009 33.78995433789955,19.991016888250094 33.872976338729764,19.99101688825009
C 34.0390203403902,18.36207929093305 34.28808634288085,11.846328901664869 34.37110834371108,10.217391304347826
C 34.53715234537152,8.706731345071267 34.78621834786218,10.808779494550246 34.8692403486924,10.92705713259073
C 35.03528435035284,11.705593484249611 35.28435035284351,14.228350700682718 35.36737235367372,14.888609414301115
C 35.53341635533416,14.84069948496826 35.78248235782481,11.347766199544857 35.86550435865504,10.639597556593605
C 36.031548360315476,10.206911007306266 36.28061436280614,12.017008024913162 36.36363636363636,12.292490118577076
C 36.5296803652968,13.812133189603545 36.77874636778747,18.513295005389867 36.86176836861768,19.757455982752425
C 37.02781237027812,20.875853395616243 37.276878372768785,19.128638160258713 37.359900373599004,19.002874595759973
C 37.52594437525945,19.041801413342917 37.7750103777501,19.826326506168407 37.85803237858032,19.99101688825009
C 38.02407638024076,18.61210923463888 38.27314238273143,12.273026709785604 38.35616438356164,10.729428674092706
C 38.52220838522208,10.512336806803212 38.771274387712744,17.36195951610971 38.85429638854296,18.688465684513115
C 39.02034039020341,19.714037609294525 39.26940639269406,17.18379446640316 39.35242839352428,16.882860222781172
C 39.518472395184716,16.421727152952446 39.76753839767539,16.081866091747514 39.8505603985056,15.921667265540783
C 40.01660440016604,16.43969337645227 40.2656704026567,19.312791951131874 40.34869240348692,19.99101688825009
C 40.51473640514737,20.220086237872803 40.763802407638025,17.74523895077255 40.846824408468244,17.296083363277038
C 41.01286841012868,17.296083363277038 41.26193441261935,19.541861300754583 41.34495641344956,19.99101688825009
C 41.51100041511,18.571685231764288 41.76006641760066,10.648580668343515 41.84308841843088,8.7800934243622
C 42.009132420091326,7.706611570247934 42.258198422581984,12.755120373697451 42.3412204234122,13.550125763564498
C 42.50726442507264,15.38866930171278 42.756330427563306,18.767816504970657 42.83935242839352,19.811354653251886
C 43.00539643005396,20.51952329620314 43.25446243254462,18.13450712660199 43.33748443337484,17.79913762127201
C 43.503528435035285,15.881243262666189 43.75259443752594,9.8865133548928 43.83561643835616,8.30398850161696
C 44.0016604400166,5.6389986824769425 44.25072644250727,2.891663672296082 44.333748443337484,1.8091987064319064
C 44.49979244499792,3.7570367708707617 44.74885844748858,16.96071385794706 44.8318804483188,19.99101688825009
C 44.997924449979244,23.02131991855312 45.2469904524699,19.991016888250094 45.33001245330012,19.99101688825009
C 45.49605645496056,19.99101688825009 45.74512245745123,19.991016888250094 45.82814445828144,19.99101688825009
C 45.99418845994188,19.99101688825009 46.24325446243254,19.991016888250094 46.32627646326276,19.99101688825009
C 46.4923204649232,19.99101688825009 46.74138646741386,19.991016888250094 46.82440846824408,19.99101688825009
C 46.99045246990452,19.99101688825009 47.23951847239519,19.991016888250094 47.3225404732254,19.99101688825009
C 47.48858447488585,19.99101688825009 47.7376504773765,19.991016888250094 47.820672478206724,19.99101688825009
C 47.98671647986717,19.99101688825009 48.23578248235782,19.991016888250094 48.31880448318804,19.99101688825009
C 48.48484848484848,18.579171158222543 48.73391448733915,12.931788238112349 48.81693648816936,11.519942508084801
C 48.98298048982981,11.5169481375015 49.23204649232046,18.564199305306023 49.31506849315068,19.97305066475027
C 49.48111249481113,19.889208288417777 49.73017849730178,12.50958198586657 49.813200498132,11.016888250089831
C 49.979244499792436,11.019882620673132 50.22831050228311,18.49532878189005 50.31133250311332,19.99101688825009
C 50.477376504773765,21.486704994610136 50.726442507264416,19.991016888250094 50.80946450809464,19.99101688825009
C 50.97550850975509,19.99101688825009 51.224574512245745,19.991016888250094 51.307596513075964,19.99101688825009
C 51.473640514736395,19.99101688825009 51.72270651722707,19.991016888250094 51.80572851805728,19.99101688825009
C 51.971772519717724,19.99101688825009 52.220838522208375,19.991016888250094 52.3038605230386,19.99101688825009
C 52.46990452469905,19.99101688825009 52.718970527189704,19.991016888250094 52.80199252801992,19.99101688825009
C 52.968036529680354,19.99101688825009 53.217102532171026,19.991016888250094 53.30012453300124,19.99101688825009
C 53.46616853466168,19.99101688825009 53.715234537152334,19.991016888250094 53.79825653798256,19.99101688825009
C 53.964300539643006,19.99101688825009 54.21336654213366,19.991016888250094 54.29638854296388,19.99101688825009
C 54.46243254462431,19.99101688825009 54.711498547114985,19.991016888250094 54.7945205479452,19.99101688825009
C 54.96056454960564,19.99101688825009 55.20963055209629,19.991016888250094 55.29265255292652,19.99101688825009
C 55.458696554586965,19.99101688825009 55.70776255707762,19.991016888250094 55.79078455790784,19.99101688825009
C 55.95682855956827,19.99101688825009 56.205894562058944,19.991016888250094 56.28891656288916,19.99101688825009
C 56.4549605645496,19.99101688825009 56.70402656704025,19.991016888250094 56.78704856787048,19.99101688825009
C 56.953092569530924,19.99101688825009 57.20215857202158,19.991016888250094 57.2851805728518,19.99101688825009
C 57.45122457451223,19.99101688825009 57.7002905770029,19.991016888250094 57.78331257783312,19.99101688825009
C 57.94935657949356,19.99101688825009 58.19842258198421,19.991016888250094 58.28144458281444,19.99101688825009
C 58.44748858447488,19.99101688825009 58.69655458696554,19.991016888250094 58.77957658779576,19.99101688825009
C 58.94562058945619,19.99101688825009 59.19468659194686,19.991016888250094 59.27770859277708,19.99101688825009
C 59.44375259443752,19.99101688825009 59.69281859692817,19.991016888250094 59.7758405977584,19.99101688825009
C 59.94188459941884,19.99101688825009 60.1909506019095,19.991016888250094 60.27397260273972,19.99101688825009
C 60.44001660440015,19.99101688825009 60.68908260689082,19.991016888250094 60.77210460772104,19.99101688825009
C 60.93814860938148,19.99101688825009 61.18721461187213,19.991016888250094 61.27023661270236,19.99101688825009
C 61.4362806143628,19.99101688825009 61.68534661685346,19.991016888250094 61.76836861768368,19.99101688825009
C 61.93441261934411,19.99101688825009 62.18347862183478,19.991016888250094 62.266500622665,19.99101688825009
C 62.43254462432544,19.99101688825009 62.68161062681609,19.991016888250094 62.76463262764632,19.99101688825009
C 62.93067662930676,19.99101688825009 63.17974263179743,19.991016888250094 63.26276463262764,19.99101688825009
C 63.42880863428808,19.99101688825009 63.67787463677874,19.991016888250094 63.76089663760896,19.99101688825009
C 63.9269406392694,19.99101688825009 64.17600664176005,19.991016888250094 64.25902864259028,19.99101688825009
C 64.42507264425072,19.99101688825009 64.67413864674138,19.991016888250094 64.7571606475716,19.99101688825009
C 64.92320464923203,19.99101688825009 65.1722706517227,19.991016888250094 65.25529265255291,19.99101688825009
C 65.42133665421336,19.99101688825009 65.67040265670401,19.991016888250094 65.75342465753424,19.99101688825009
C 65.91946865919468,19.99101688825009 66.16853466168534,19.991016888250094 66.25155666251555,19.99101688825009
C 66.41760066417599,19.99101688825009 66.66666666666666,19.991016888250094 66.74968866749687,19.99101688825009
C 66.91573266915732,19.99101688825009 67.16479867164797,19.991016888250094 67.2478206724782,19.99101688825009
C 67.41386467413864,19.99101688825009 67.6629306766293,19.991016888250094 67.74595267745951,19.99101688825009
C 67.91199667911995,19.99101688825009 68.16106268161062,19.991016888250094 68.24408468244083,19.99101688825009
C 68.41012868410128,19.99101688825009 68.65919468659193,19.991016888250094 68.74221668742216,19.99101688825009
C 68.9082606890826,19.99101688825009 69.15732669157326,19.991016888250094 69.24034869240347,19.99101688825009
C 69.40639269406391,19.99101688825009 69.65545869655458,19.991016888250094 69.73848069738479,19.99101688825009
C 69.90452469904524,19.99101688825009 70.15359070153589,19.991016888250094 70.23661270236612,19.99101688825009
C 70.40265670402655,19.99101688825009 70.65172270651722,19.991016888250094 70.73474470734743,19.99101688825009
C 70.90078870900787,19.99101688825009 71.14985471149853,19.991016888250094 71.23287671232875,19.99101688825009
C 71.3989207139892,19.99101688825009 71.64798671647985,19.991016888250094 71.73100871731008,19.99101688825009
C 71.89705271897051,19.99101688825009 72.14611872146118,19.991016888250094 72.22914072229139,19.99101688825009
C 72.39518472395183,19.99101688825009 72.64425072644251,19.991016888250094 72.72727272727272,19.99101688825009
C 72.89331672893316,19.99101688825009 73.14238273142381,19.991016888250094 73.22540473225403,19.99101688825009
C 73.39144873391446,19.99101688825009 73.64051473640512,19.991016888250094 73.72353673723535,19.99101688825009
C 73.88958073889579,19.99101688825009 74.13864674138647,19.991016888250094 74.22166874221668,19.99101688825009
C 74.38771274387712,19.99101688825009 74.63677874636777,19.991016888250094 74.719800747198,19.99101688825009
C 74.88584474885842,19.99101688825009 75.13491075134908,19.991016888250094 75.21793275217931,19.99101688825009
C 75.38397675383975,19.99101688825009 75.63304275633043,19.991016888250094 75.71606475716064,19.99101688825009
C 75.88210875882108,19.99101688825009 76.13117476131173,19.991016888250094 76.21419676214195,19.99101688825009
C 76.38024076380238,19.99101688825009 76.62930676629304,19.991016888250094 76.71232876712327,19.99101688825009
C 76.8783727687837,19.99101688825009 77.12743877127438,19.991016888250094 77.2104607721046,19.99101688825009
C 77.37650477376503,19.99101688825009 77.62557077625569,19.991016888250094 77.70859277708591,19.99101688825009
C 77.87463677874634,19.99101688825009 78.123702781237,19.991016888250094 78.20672478206723,19.99101688825009
C 78.37276878372766,19.99101688825009 78.62183478621834,19.991016888250094 78.70485678704856,19.99101688825009
C 78.870900788709,19.99101688825009 79.11996679119964,19.991016888250094 79.20298879202987,19.99101688825009
C 79.3690327936903,19.99101688825009 79.61809879618097,19.991016888250094 79.7011207970112,19.99101688825009
C 79.86716479867164,19.99101688825009 80.1162308011623,19.991016888250094 80.19925280199251,19.99101688825009
C 80.36529680365295,19.99101688825009 80.6143628061436,19.991016888250094 80.69738480697383,19.99101688825009
C 80.86342880863425,19.99101688825009 81.11249481112493,19.991016888250094 81.19551681195516,19.99101688825009
C 81.3615608136156,19.99101688825009 81.61062681610626,19.991016888250094 81.69364881693647,19.99101688825009
C 81.85969281859691,19.99101688825009 82.10875882108756,19.991016888250094 82.19178082191779,19.99101688825009
C 82.35782482357821,19.99101688825009 82.60689082606889,19.991016888250094 82.68991282689912,19.99101688825009
C 82.85595682855956,19.99101688825009 83.10502283105022,19.991016888250094 83.18804483188043,19.99101688825009
C 83.35408883354087,19.99101688825009 83.60315483603152,19.991016888250094 83.68617683686175,19.99101688825009
C 83.85222083852217,19.99101688825009 84.10128684101285,19.991016888250094 84.18430884184308,19.99101688825009
C 84.35035284350352,19.99101688825009 84.59941884599418,19.991016888250094 84.68244084682439,19.99101688825009
C 84.84848484848483,19.99101688825009 85.09755085097548,19.991016888250094 85.1805728518057,19.99101688825009
C 85.34661685346613,19.99101688825009 85.59568285595681,19.991016888250094 85.67870485678704,19.99101688825009
C 85.84474885844747,19.99101688825009 86.09381486093811,19.991016888250094 86.17683686176835,19.99101688825009
C 86.34288086342877,19.99101688825009 86.59194686591945,19.991016888250094 86.67496886674967,19.99101688825009
C 86.84101286841009,19.99101688825009 87.09007887090077,19.991016888250094 87.173100871731,19.99101688825009
C 87.33914487339143,19.99101688825009 87.58821087588207,19.991016888250094 87.67123287671231,19.99101688825009
C 87.83727687837275,19.99101688825009 88.08634288086341,19.991016888250094 88.16936488169364,19.99101688825009
C 88.33540888335408,19.99101688825009 88.58447488584476,19.991016888250094 88.66749688667495,19.99101688825009
C 88.83354088833539,19.99101688825009 89.08260689082603,19.991016888250094 89.16562889165627,19.99101688825009
C 89.3316728933167,19.99101688825009 89.58073889580737,19.991016888250094 89.6637608966376,19.99101688825009
C 89.82980489829804,19.99101688825009 90.07887090078871,19.991016888250094 90.16189290161891,19.99101688825009
C 90.32793690327935,19.99101688825009 90.57700290576999,19.991016888250094 90.66002490660023,19.99101688825009
C 90.82606890826067,19.99101688825009 91.07513491075133,19.991016888250094 91.15815691158156,19.99101688825009
C 91.324200913242,19.99101688825009 91.57326691573267,19.991016888250094 91.65628891656287,19.99101688825009
C 91.82233291822331,19.99101688825009 92.07139892071395,19.991016888250094 92.15442092154419,19.99101688825009
C 92.32046492320463,19.99101688825009 92.56953092569529,19.991016888250094 92.65255292652552,19.99101688825009
C 92.81859692818595,19.99101688825009 93.06766293067663,19.991016888250094 93.15068493150683,19.99101688825009
C 93.31672893316727,19.99101688825009 93.5657949356579,19.991016888250094 93.64881693648815,19.99101688825009
C 93.81486093814858,19.99101688825009 94.06392694063925,19.991016888250094 94.14694894146947,19.99101688825009
C 94.31299294312991,19.99101688825009 94.56205894562059,19.991016888250094 94.64508094645079,19.99101688825009
C 94.81112494811123,19.99101688825009 95.06019095060189,19.991016888250094 95.14321295143212,19.99101688825009
C 95.30925695309254,19.99101688825009 95.55832295558321,19.991016888250094 95.64134495641343,19.99101688825009
C 95.80738895807387,19.99101688825009 96.05645496056455,19.991016888250094 96.13947696139475,19.99101688825009
C 96.30552096305519,19.99101688825009 96.55458696554585,19.991016888250094 96.63760896637608,19.99101688825009
C 96.8036529680365,19.99101688825009 97.05271897052717,19.991016888250094 97.1357409713574,19.99101688825009
C 97.30178497301783,19.99101688825009 97.55085097550851,19.991016888250094 97.63387297633871,19.99101688825009
C 97.79991697799915,19.99101688825009 98.04898298048981,19.991016888250094 98.13200498132004,19.99101688825009
C 98.29804898298046,19.99101688825009 98.54711498547113,19.991016888250094 98.63013698630135,19.99101688825009
C 98.79618098796179,19.99101688825009 99.04524699045247,19.991016888250094 99.12826899128267,19.99101688825009
C 99.2943129929431,19.99101688825009 99.54337899543377,19.991016888250094 99.626400996264,19.99101688825009
C 99.79244499792442,19.99101688825009 100.04151100041508,19.991016888250094 100.12453300124531,19.99101688825009
C 100.29057700290575,19.99101688825009 100.53964300539643,19.991016888250094 100.62266500622663,19.99101688825009
C 100.78870900788706,19.99101688825009 101.03777501037773,19.991016888250094 101.12079701120796,19.99101688825009
C 101.28684101286838,19.99101688825009 101.53590701535904,19.991016888250094 101.61892901618927,19.99101688825009
C 101.78497301784971,19.99101688825009 102.03403902034039,19.991016888250094 102.1170610211706,19.99101688825009
C 102.28310502283104,19.99101688825009 102.53217102532169,19.991016888250094 102.61519302615191,19.99101688825009
C 102.78123702781234,19.99101688825009 103.030303030303,19.991016888250094 103.11332503113323,19.99101688825009
C 103.27936903279367,19.99101688825009 103.52843503528435,19.991016888250094 103.61145703611456,19.99101688825009
C 103.77750103777502,19.99101688825009 104.02656704026565,19.991016888250094 104.10958904109587,19.99101688825009
C 104.2756330427563,19.99101688825009 104.52469904524696,19.991016888250094 104.60772104607719,19.99101688825009
C 104.77376504773763,19.99101688825009 105.0228310502283,19.991016888250094 105.10585305105852,19.99101688825009
C 105.27189705271898,19.99101688825009 105.5209630552096,19.991016888250094 105.60398505603983,19.99101688825009
C 105.77002905770026,19.99101688825009 106.01909506019092,19.991016888250094 106.10211706102115,19.99101688825009
C 106.26816106268159,19.99101688825009 106.51722706517226,19.991016888250094 106.60024906600248,19.99101688825009
C 106.76629306766294,19.99101688825009 107.01535907015356,19.991016888250094 107.09838107098379,19.99101688825009
C 107.26442507264422,19.99101688825009 107.51349107513488,19.991016888250094 107.5965130759651,19.99101688825009
C 107.76255707762554,19.99101688825009 108.01162308011622,19.991016888250094 108.09464508094644,19.99101688825009
C 108.2606890826069,19.99101688825009 108.50975508509752,19.991016888250094 108.59277708592775,19.99101688825009
C 108.75882108758817,19.99101688825009 109.00788709007884,19.991016888250094 109.09090909090907,19.99101688825009
C 109.2569530925695,19.99101688825009 109.50601909506018,19.991016888250094 109.5890410958904,19.99101688825009
C 109.75508509755086,19.99101688825009 110.00415110004148,19.991016888250094 110.08717310087171,19.99101688825009
C 110.25321710253216,19.99101688825009 110.50228310502281,19.991016888250094 110.58530510585304,19.99101688825009
C 110.75134910751348,19.99101688825009 111.00041511000416,19.991016888250094 111.08343711083435,19.99101688825009
C 111.24948111249479,19.99101688825009 111.49854711498544,19.991016888250094 111.58156911581567,19.99101688825009
C 111.74761311747612,19.99101688825009 111.99667911996677,19.991016888250094 112.079701120797,19.99101688825009
C 112.24574512245744,19.99101688825009 112.49481112494811,19.991016888250094 112.57783312577831,19.99101688825009
C 112.74387712743875,19.99101688825009 112.9929431299294,19.991016888250094 113.07596513075963,19.99101688825009
C 113.24200913242008,19.99101688825009 113.49107513491073,19.991016888250094 113.57409713574096,19.99101688825009
C 113.7401411374014,19.99101688825009 113.98920713989207,19.991016888250094 114.07222914072227,19.99101688825009
C 114.23827314238271,19.99101688825009 114.48733914487336,19.991016888250094 114.57036114570359,19.99101688825009
C 114.73640514736404,19.99101688825009 114.98547114985469,19.991016888250094 115.06849315068492,19.99101688825009
C 115.23453715234535,19.99101688825009 115.48360315483603,19.991016888250094 115.56662515566623,19.99101688825009
C 115.73266915732667,19.99101688825009 115.98173515981732,19.991016888250094 116.06475716064755,19.99101688825009
C 116.230801162308,19.99101688825009 116.47986716479865,19.991016888250094 116.56288916562887,19.99101688825009
C 116.72893316728931,19.99101688825009 116.97799916977999,19.991016888250094 117.06102117061019,19.99101688825009
C 117.22706517227063,19.99101688825009 117.47613117476129,19.991016888250094 117.55915317559152,19.99101688825009
C 117.72519717725197,19.99101688825009 117.97426317974261,19.991016888250094 118.05728518057283,19.99101688825009
C 118.22332918223327,19.99101688825009 118.47239518472395,19.991016888250094 118.55541718555415,19.99101688825009
C 118.72146118721459,19.99101688825009 118.97052718970525,19.991016888250094 119.05354919053548,19.99101688825009
C 119.21959319219593,19.99101688825009 119.46865919468657,19.991016888250094 119.55168119551679,19.99101688825009
C 119.71772519717723,19.99101688825009 119.96679119966791,19.991016888250094 120.04981320049811,19.99101688825009
C 120.21585720215855,19.99101688825009 120.46492320464921,19.991016888250094 120.54794520547944,19.99101688825009
C 120.71398920713989,19.99101688825009 120.96305520963053,19.991016888250094 121.04607721046075,19.99101688825009
C 121.21212121212119,19.99101688825009 121.46118721461187,19.991016888250094 121.54420921544207,19.99101688825009
C 121.7102532171025,19.99101688825009 121.95931921959317,19.991016888250094 122.0423412204234,19.99101688825009
C 122.20838522208385,19.99101688825009 122.45745122457448,19.991016888250094 122.54047322540471,19.99101688825009
C 122.70651722706515,19.99101688825009 122.95558322955583,19.991016888250094 123.03860523038603,19.99101688825009
C 123.20464923204646,19.99101688825009 123.45371523453713,19.991016888250094 123.53673723536735,19.99101688825009
C 123.7027812370278,19.99101688825009 123.95184723951844,19.991016888250094 124.03486924034867,19.99101688825009
C 124.20091324200911,19.99101688825009 124.44997924449979,19.991016888250094 124.53300124533,19.99101688825009
C 124.69904524699042,19.99101688825009 124.94811124948109,19.991016888250094 125.03113325031131,19.99101688825009
C 125.19717725197177,19.99101688825009 125.4462432544624,19.991016888250094 125.52926525529263,19.99101688825009
C 125.69530925695307,19.99101688825009 125.94437525944375,19.991016888250094 126.02739726027396,19.99101688825009
C 126.19344126193438,19.99101688825009 126.44250726442505,19.991016888250094 126.52552926525527,19.99101688825009
C 126.69157326691573,19.99101688825009 126.94063926940636,19.991016888250094 127.02366127023659,19.99101688825009
C 127.18970527189703,19.99101688825009 127.4387712743877,19.991016888250094 127.52179327521792,19.99101688825009
C 127.68783727687834,19.99101688825009 127.936903279369,19.991016888250094 128.01992528019923,19.99101688825009
C 128.18596928185968,19.99101688825009 128.43503528435033,19.991016888250094 128.51805728518056,19.99101688825009
C 128.684101286841,20.00449155587496 128.93316728933166,20.058390226374417 129.0161892901619,20.071864893999283
C 129.1822332918223,20.071864893999283 129.43129929431302,20.004491555874957 129.51432129514322,19.99101688825009
C 129.68036529680367,19.98053659120853 129.9294312992943,20.005988741166608 130.01245330012452,20.00898311174991
C 130.17849730178497,19.94759851479219 130.42756330427562,19.687088274044797 130.51058530510585,19.622709306503772
C 130.67662930676627,19.625703677087074 130.92569530925698,19.95957599712541 131.00871731008718,20.026949335249732
C 131.17476131174763,20.08833393220745 131.42382731423825,19.997005629416698 131.50684931506848,19.99101688825009
C 131.67289331672893,19.985028147083487 131.92195931921958,19.991016888250094 132.0049813200498,19.99101688825009
C 132.17102532171023,19.99101688825009 132.42009132420094,19.991016888250094 132.50311332503114,19.99101688825009
C 132.6691573266916,19.576296562462574 132.9182233291822,17.91741525931249 133.00124533001244,17.502694933524975
C 133.1672893316729,15.918672894957481 133.41635533416354,11.656186369625104 133.49937733499377,10.486884656845131
C 133.6654213366542,10.199425080848007 133.9144873391449,14.896095340759372 133.9975093399751,15.77793747754222
C 134.16355334163555,17.36195951610971 134.41261934412617,19.288836986465448 134.4956413449564,19.99101688825009
C 134.66168534661685,20.693196790034737 134.9107513491075,19.991016888250094 134.99377334993773,19.99101688825009
C 135.15981735159815,19.452030183255484 135.40888335408886,17.296083363277038 135.49190535491906,16.75709665828243
C 135.6579493565795,16.75709665828243 135.90701535907013,19.45203018325548 135.99003735990036,19.99101688825009
C 136.1560813615608,20.530003593244704 136.40514736405146,19.991016888250094 136.48816936488168,19.99101688825009
C 136.6542133665421,19.99101688825009 136.90327936903282,19.991016888250094 136.986301369863,19.99101688825009
C 137.15234537152347,19.99101688825009 137.4014113740141,19.991016888250094 137.48443337484431,19.99101688825009
C 137.65047737650477,19.99101688825009 137.89954337899542,19.991016888250094 137.98256537982564,19.99101688825009
C 138.14860938148607,19.99101688825009 138.39767538397678,19.991016888250094 138.48069738480697,19.99101688825009
C 138.64674138646743,19.99101688825009 138.89580738895805,19.991016888250094 138.97882938978827,19.99101688825009
C 139.14487339144873,19.99101688825009 139.39393939393938,19.991016888250094 139.4769613947696,19.99101688825009
C 139.64300539643003,19.99101688825009 139.89207139892073,19.991016888250094 139.97509339975093,19.99101688825009
C 140.14113740141138,19.99101688825009 140.390203403902,19.991016888250094 140.47322540473223,19.99101688825009
C 140.63926940639269,19.746975685710865 140.88833540888334,18.77081087555396 140.97135740971356,18.526769673014734
C 141.137401411374,18.508803449514915 141.3864674138647,19.657144568211763 141.4694894146949,19.88321954725117
C 141.63553341635534,20.12726074979039 141.88459941884597,19.97305066475027 141.9676214196762,19.99101688825009
C 142.13366542133664,20.00898311174991 142.3827314238273,19.991016888250094 142.46575342465752,19.99101688825009
C 142.63179742631795,19.99101688825009 142.88086342880865,19.991016888250094 142.96388542963885,19.99101688825009
C 143.1299294312993,19.99101688825009 143.37899543378995,19.991016888250094 143.46201743462018,19.99101688825009
C 143.62806143628063,19.99101688825009 143.87712743877125,19.991016888250094 143.96014943960148,19.99101688825009
C 144.1261934412619,19.99101688825009 144.3752594437526,19.991016888250094 144.4582814445828,19.99101688825009
C 144.62432544624326,19.99101688825009 144.8733914487339,19.991016888250094 144.95641344956414,19.99101688825009
C 145.1224574512246,19.99101688825009 145.3715234537152,19.991016888250094 145.45454545454544,19.99101688825009
C 145.62058945620586,19.99101688825009 145.86965545869657,19.991016888250094 145.95267745952677,19.99101688825009
C 146.11872146118722,19.99101688825009 146.36778746367787,19.991016888250094 146.4508094645081,19.99101688825009
C 146.61685346616855,19.99101688825009 146.86591946865917,19.991016888250094 146.9489414694894,19.99101688825009
C 147.11498547114982,19.99101688825009 147.36405147364053,19.991016888250094 147.44707347447073,19.99101688825009
C 147.61311747613118,19.99101688825009 147.86218347862183,19.991016888250094 147.94520547945206,19.99101688825009
C 148.1112494811125,19.99101688825009 148.36031548360313,19.991016888250094 148.44333748443336,19.99101688825009
C 148.60938148609378,19.99101688825009 148.8584474885845,19.991016888250094 148.9414694894147,19.99101688825009
C 149.10751349107514,19.99101688825009 149.3565794935658,19.991016888250094 149.43960149439602,19.99101688825009
C 149.60564549605647,19.99101688825009 149.8547114985471,19.991016888250094 149.93773349937732,19.99101688825009
C 150.10377750103774,19.99101688825009 150.35284350352845,19.991016888250094 150.43586550435865,19.99101688825009
C 150.6019095060191,19.99101688825009 150.85097550850975,19.991016888250094 150.93399750933997,19.99101688825009
C 151.10004151100043,19.99101688825009 151.34910751349105,19.991016888250094 151.43212951432128,19.99101688825009
C 151.5981735159817,19.99101688825009 151.8472395184724,19.991016888250094 151.9302615193026,19.99101688825009
C 152.09630552096306,19.99101688825009 152.3453715234537,19.991016888250094 152.42839352428393,19.99101688825009
C 152.5944375259444,19.99101688825009 152.843503528435,19.991016888250094 152.92652552926523,19.99101688825009
C 153.09256953092566,19.99101688825009 153.34163553341637,19.991016888250094 153.42465753424656,19.99101688825009
C 153.59070153590702,19.99101688825009 153.83976753839767,19.991016888250094 153.9227895392279,19.99101688825009
C 154.08883354088834,19.99101688825009 154.33789954337897,19.991016888250094 154.4209215442092,19.99101688825009
C 154.58696554586962,19.99101688825009 154.83603154836032,19.991016888250094 154.91905354919052,19.99101688825009
C 155.08509755085097,19.99101688825009 155.33416355334163,19.991016888250094 155.41718555417185,19.99101688825009
C 155.5832295558323,19.99101688825009 155.83229555832293,19.991016888250094 155.91531755915315,19.99101688825009
C 156.08136156081358,19.99101688825009 156.33042756330428,19.991016888250094 156.41344956413448,19.99101688825009
C 156.57949356579493,19.99101688825009 156.82855956828558,19.991016888250094 156.9115815691158,19.99101688825009
C 157.07762557077626,19.99101688825009 157.32669157326688,19.991016888250094 157.4097135740971,19.99101688825009
C 157.57575757575754,19.99101688825009 157.82482357824824,19.991016888250094 157.90784557907844,19.99101688825009
C 158.0738895807389,19.99101688825009 158.32295558322954,19.991016888250094 158.40597758405977,19.99101688825009
C 158.57202158572022,19.99101688825009 158.82108758821087,19.991016888250094 158.9041095890411,19.99101688825009
C 159.07015359070152,19.99101688825009 159.3192195931922,19.991016888250094 159.4022415940224,19.99101688825009
C 159.56828559568285,19.99101688825009 159.8173515981735,19.991016888250094 159.90037359900373,19.99101688825009
C 160.06641760066418,19.99101688825009 160.31548360315483,19.991016888250094 160.39850560398506,19.99101688825009
C 160.56454960564548,19.99101688825009 160.81361560813616,19.991016888250094 160.89663760896636,19.99101688825009
C 161.0626816106268,19.99101688825009 161.31174761311746,19.991016888250094 161.3947696139477,19.99101688825009
C 161.56081361560814,19.99101688825009 161.8098796180988,19.991016888250094 161.89290161892902,19.99101688825009
C 162.05894562058944,19.99101688825009 162.30801162308012,19.991016888250094 162.39103362391032,19.99101688825009
C 162.55707762557077,19.99101688825009 162.80614362806142,19.991016888250094 162.88916562889165,19.99101688825009
C 163.0552096305521,19.99101688825009 163.30427563304275,19.991016888250094 163.38729763387298,19.99101688825009
C 163.5533416355334,18.314169361600193 163.80240763802408,11.606779255000598 163.88542963885428,9.9299317283507
C 164.05147364051473,9.931428913642351 164.30053964300538,18.32165528805845 164.3835616438356,20.0
C 164.54960564549606,21.676847526649897 164.7986716479867,19.992514073541745 164.88169364881693,19.99101688825009
C 165.04773765047736,19.98951970295844 165.29680365296804,19.991016888250094 165.37982565379824,19.99101688825009
C 165.5458696554587,19.99101688825009 165.79493565794934,19.991016888250094 165.87795765877956,19.99101688825009
C 166.04400166044002,19.99101688825009 166.29306766293067,19.991016888250094 166.3760896637609,19.99101688825009
C 166.54213366542132,19.99101688825009 166.791199667912,19.991016888250094 166.8742216687422,19.99101688825009
C 167.04026567040265,19.99101688825009 167.2893316728933,19.991016888250094 167.37235367372352,19.99101688825009
C 167.53839767538398,19.99101688825009 167.78746367787463,19.991016888250094 167.87048567870485,19.99101688825009
C 168.03652968036528,19.99101688825009 168.28559568285596,19.991016888250094 168.36861768368615,19.99101688825009
C 168.5346616853466,19.99101688825009 168.78372768783726,19.991016888250094 168.86674968866748,19.99101688825009
C 169.03279369032794,19.99101688825009 169.28185969281859,19.991016888250094 169.3648816936488,19.99101688825009
C 169.53092569530924,19.99101688825009 169.77999169779991,19.991016888250094 169.8630136986301,19.99101688825009
C 170.02905770029056,19.99101688825009 170.27812370278122,19.991016888250094 170.36114570361144,19.99101688825009
C 170.5271897052719,19.99101688825009 170.77625570776254,19.991016888250094 170.85927770859277,19.99101688825009
C 171.02532171025322,19.99101688825009 171.27438771274387,19.991016888250094 171.35740971357407,19.99101688825009
C 171.52345371523452,19.99101688825009 171.7725197177252,19.991016888250094 171.8555417185554,19.99101688825009
C 172.02158572021585,19.99101688825009 172.2706517227065,19.991016888250094 172.35367372353673,19.99101688825009
C 172.51971772519718,19.99101688825009 172.76878372768783,19.991016888250094 172.85180572851803,19.99101688825009
C 173.01784973017848,19.99101688825009 173.26691573266916,19.991016888250094 173.34993773349936,19.99101688825009
C 173.5159817351598,19.99101688825009 173.76504773765046,19.991016888250094 173.8480697384807,19.99101688825009
C 174.01411374014114,19.99101688825009 174.26317974263182,19.991016888250094 174.34620174346202,19.99101688825009
C 174.51224574512244,19.99101688825009 174.76131174761312,19.991016888250094 174.84433374844332,19.99101688825009
C 175.01037775010377,19.99101688825009 175.25944375259442,19.991016888250094 175.34246575342465,19.99101688825009
C 175.5085097550851,19.99101688825009 175.75757575757578,19.991016888250094 175.84059775840598,19.99101688825009
C 176.0066417600664,19.99101688825009 176.25570776255708,19.991016888250094 176.33872976338728,19.99101688825009
C 176.50477376504773,19.99101688825009 176.75383976753838,19.991016888250094 176.8368617683686,19.99101688825009
C 177.00290577002906,19.99101688825009 177.25197177251974,19.991016888250094 177.33499377334994,19.99101688825009
C 177.50103777501036,19.99101688825009 177.75010377750104,19.991016888250094 177.83312577833124,19.99101688825009
C 177.9991697799917,19.99101688825009 178.24823578248234,19.991016888250094 178.33125778331257,19.99101688825009
C 178.49730178497302,19.99101688825009 178.7463677874637,19.991016888250094 178.8293897882939,19.99101688825009
C 178.99543378995432,19.99101688825009 179.244499792445,19.991016888250094 179.3275217932752,19.99101688825009
C 179.49356579493565,19.99101688825009 179.7426317974263,19.991016888250094 179.82565379825652,19.99101688825009
C 179.99169779991698,19.99101688825009 180.24076380240766,19.991016888250094 180.32378580323785,19.99101688825009
C 180.48982980489828,19.99101688825009 180.73889580738896,19.991016888250094 180.82191780821915,19.99101688825009
C 180.9879618098796,19.99101688825009 181.23702781237026,19.991016888250094 181.32004981320048,19.99101688825009
C 181.48609381486094,19.99101688825009 181.73515981735162,19.991016888250094 181.8181818181818,19.99101688825009
C 181.90120381901204,19.99101688825009 181.81818181818184,19.991016888250094 181.8181818181818,19.99101688825009
" ></path>
  </svg>
