  <svg id="graph" xmlns="http://www.w3.org/2000/svg" class='w-full' width='200' height='30' viewbox="0 0 300.0 20">
  <path fill="none" class='stroke-2 stroke-amber-900 dark:stroke-amber-300' d="M 3.4305317324185247,19.99751138541174
C 4.002287021154945,6.069150304025748 6.289308176100628,2.666384623679999 6.861063464837049,1.8156932035935613
C 8.004574042309892,1.3532256592754834 9.719839908519154,3.75681258243536 10.291595197255575,4.14503645820372
C 11.435105774728415,5.417962820098052 13.150371640937678,8.568548888833588 13.722126929674099,9.45325137495956
C 14.86563750714694,9.258724667977338 16.580903373356204,4.057105409418578 17.152658662092623,2.977876216310382
C 18.296169239565465,2.151656173008488 20.011435105774726,4.242921965341895 20.58319039451115,4.495931115148197
C 21.72670097198399,6.399721275166115 23.441966838193252,12.749836166206274 24.013722126929675,14.400617176417889
C 25.157232704402517,16.211913827572193 26.87249857061178,15.203195381131321 27.444253859348198,15.36371102207401
C 28.587764436821043,15.314353499406879 30.3030303030303,14.314345204024917 30.874785591766724,14.1044720404151
C 32.01829616923956,13.930269019236988 33.733562035448834,14.282822752573644 34.305317324185246,14.31849289500535
C 35.448827901658085,13.802934906137752 37.16409376786735,11.562352238508822 37.73584905660377,11.011124107209517
C 38.879359634076614,11.014027490895819 40.594625500285865,13.781781682137554 41.16638078902229,14.335913197123162
C 42.30989136649513,13.530016839625382 44.0251572327044,7.5357738347062195 44.59691252144082,6.175745962222832
C 45.74042309891366,7.119345660270928 47.45568896512291,17.693883814880255 48.02744425385934,19.99751138541174
C 49.17095483133218,21.4948278293474 50.886220697541454,15.96595575243262 51.457975986277866,15.159644625836798
C 52.60148656375071,15.159644625836798 54.31675242995997,19.191200258815915 54.888507718696395,19.99751138541174
C 56.03201829616924,20.803822512007567 57.7472841623785,19.99751138541174 58.31903945111492,19.99751138541174
C 59.46255002858775,19.99751138541174 61.17781589479702,19.99751138541174 61.74957118353344,19.99751138541174
C 62.89308176100628,19.99751138541174 64.60834762721555,19.99751138541174 65.18010291595198,19.99751138541174
C 66.32361349342482,19.99751138541174 68.03887935963408,19.99751138541174 68.61063464837049,19.99751138541174
C 69.75414522584335,19.99751138541174 71.4694110920526,19.99751138541174 72.04116638078902,19.99751138541174
C 73.18467695826186,19.99751138541174 74.89994282447114,19.99751138541174 75.47169811320755,19.99751138541174
C 76.61520869068039,19.99751138541174 78.33047455688965,19.99751138541174 78.90222984562607,19.99751138541174
C 80.0457404230989,19.99751138541174 81.76100628930817,19.99751138541174 82.3327615780446,19.99751138541174
C 83.47627215551745,19.99751138541174 85.19153802172669,19.99751138541174 85.76329331046313,19.99751138541174
C 86.90680388793595,19.99751138541174 88.62206975414523,19.99751138541174 89.19382504288164,19.99751138541174
C 90.33733562035447,19.99751138541174 92.05260148656374,19.99751138541174 92.62435677530017,19.99751138541174
C 93.76786735277301,19.99751138541174 95.48313321898227,19.99751138541174 96.0548885077187,19.99751138541174
C 97.19839908519153,19.99751138541174 98.9136649514008,19.99751138541174 99.48542024013722,19.99751138541174
C 100.62893081761005,19.99751138541174 102.34419668381935,19.99751138541174 102.91595197255575,19.99751138541174
C 104.05946255002858,19.99751138541174 105.77472841623785,19.99751138541174 106.34648370497428,19.99751138541174
C 107.48999428244713,19.99751138541174 109.20526014865636,19.99751138541174 109.77701543739279,19.99751138541174
C 110.92052601486563,19.99751138541174 112.63579188107491,19.99751138541174 113.20754716981132,19.99751138541174
C 114.35105774728414,19.99751138541174 116.06632361349342,19.99751138541174 116.63807890222985,19.99751138541174
C 117.7815894797027,19.99751138541174 119.49685534591192,19.99751138541174 120.06861063464837,19.99751138541174
C 121.2121212121212,19.99751138541174 122.92738707833048,19.99751138541174 123.4991423670669,19.99751138541174
C 124.64265294453973,19.99751138541174 126.35791881074903,19.99751138541174 126.92967409948542,19.99751138541174
C 128.07318467695828,19.98672738886262 129.7884505431675,19.943591402666133 130.36020583190393,19.932807406117014
C 131.50371640937678,19.035247077951706 133.21898227558606,15.498925748036065 133.79073756432246,14.612149416419879
C 134.93424814179528,14.622933412969 136.64951400800456,19.09995105724643 137.22126929674099,19.99751138541174
C 138.36477987421384,20.822487121419503 140.0800457404231,19.634588424624013 140.65180102915951,19.562003832466466
C 141.79531160663237,19.562003832466466 143.51057747284162,19.924926793254198 144.08233276157804,19.99751138541174
C 145.2258433390509,20.070095977569284 146.94110920526012,19.99751138541174 147.51286449399657,19.99751138541174
C 148.6563750714694,19.99751138541174 150.3716409376787,19.99751138541174 150.9433962264151,19.99751138541174
C 152.08690680388796,19.99751138541174 153.80217267009718,19.99751138541174 154.3739279588336,19.99751138541174
C 155.51743853630646,19.99751138541174 157.23270440251574,19.99751138541174 157.80445969125213,19.99751138541174
C 158.94797026872496,19.99751138541174 160.66323613493424,19.99751138541174 161.23499142367066,19.99751138541174
C 162.37850200114352,19.53338476470149 164.09376786735277,17.676878281860485 164.6655231560892,17.212751661150236
C 165.80903373356205,17.212751661150236 167.5242995997713,19.53338476470149 168.09605488850772,19.99751138541174
C 169.23956546598058,20.46163800612199 170.9548313321898,19.99751138541174 171.52658662092625,19.99751138541174
C 172.67009719839908,19.99751138541174 174.38536306460833,19.99751138541174 174.95711835334475,19.99751138541174
C 176.10062893081758,19.99751138541174 177.81589479702689,19.99751138541174 178.38765008576328,19.99751138541174
C 179.53116066323614,19.99751138541174 181.24642652944542,19.99751138541174 181.8181818181818,19.99751138541174
C 182.38993710691827,19.99751138541174 181.81818181818184,19.99751138541174 181.8181818181818,19.99751138541174
" ></path>
  </svg>
